<?xml version="1.0" encoding="UTF-8" standalone="no"?>
<!-- Created with Inkscape (http://www.inkscape.org/) -->

<svg
   version="1.1"
   id="svg2"
   width="1000"
   height="666.66669"
   viewBox="0 0 1000 666.66669"
   sodipodi:docname="5114557.ai"
   xmlns:inkscape="http://www.inkscape.org/namespaces/inkscape"
   xmlns:sodipodi="http://sodipodi.sourceforge.net/DTD/sodipodi-0.dtd"
   xmlns="http://www.w3.org/2000/svg"
   xmlns:svg="http://www.w3.org/2000/svg">
  <defs
     id="defs6">
    <clipPath
       clipPathUnits="userSpaceOnUse"
       id="clipPath58">
      <path
         d="M 0,500 H 750 V 0 H 0 Z"
         id="path56" />
    </clipPath>
    <clipPath
       clipPathUnits="userSpaceOnUse"
       id="clipPath82">
      <path
         d="M 0,500 H 750 V 0 H 0 Z"
         id="path80" />
    </clipPath>
    <clipPath
       clipPathUnits="userSpaceOnUse"
       id="clipPath102">
      <path
         d="M 0,500 H 750 V 0 H 0 Z"
         id="path100" />
    </clipPath>
    <clipPath
       clipPathUnits="userSpaceOnUse"
       id="clipPath126">
      <path
         d="M 0,500 H 750 V 0 H 0 Z"
         id="path124" />
    </clipPath>
  </defs>
  <sodipodi:namedview
     id="namedview4"
     pagecolor="#ffffff"
     bordercolor="#000000"
     borderopacity="0.25"
     inkscape:showpageshadow="2"
     inkscape:pageopacity="0.0"
     inkscape:pagecheckerboard="0"
     inkscape:deskcolor="#d1d1d1" />
  <g
     id="g8"
     inkscape:groupmode="layer"
     inkscape:label="5114557"
     transform="matrix(1.3333333,0,0,-1.3333333,0,666.66667)">
    <path
       d="M 0,0 H 750 V 500 H 0 Z"
       style="fill:#f2f2f2;fill-opacity:1;fill-rule:nonzero;stroke:none"
       id="path10" />
    <g
       id="g12"
       transform="translate(445.793,372.6187)">
      <path
         d="m 0,0 h -141.574 l -70.787,-122.607 70.787,-122.607 H 0 l 70.787,122.607 z"
         style="fill:#1ed2ff;fill-opacity:1;fill-rule:nonzero;stroke:none"
         id="path14" />
    </g>
    <g
       id="g16"
       transform="translate(462.6836,337.4727)">
      <path
         d="M 0,0 -22.336,38.686 H -124.79"
         style="fill:none;stroke:#333333;stroke-width:2.723;stroke-linecap:round;stroke-linejoin:miter;stroke-miterlimit:10;stroke-dasharray:none;stroke-opacity:1"
         id="path18" />
    </g>
    <g
       id="g20"
       transform="translate(430.7021,130.9443)">
      <path
         d="M 0,0 H 9.646 L 80.434,122.607 69.691,141.211"
         style="fill:none;stroke:#333333;stroke-width:2.723;stroke-linecap:round;stroke-linejoin:miter;stroke-miterlimit:10;stroke-dasharray:none;stroke-opacity:1"
         id="path22" />
    </g>
    <g
       id="g24"
       transform="translate(415.9297,130.9443)">
      <path
         d="M 0,0 H 7.091"
         style="fill:none;stroke:#333333;stroke-width:2.723;stroke-linecap:round;stroke-linejoin:miter;stroke-miterlimit:10;stroke-dasharray:none;stroke-opacity:1"
         id="path26" />
    </g>
    <g
       id="g28"
       transform="translate(381.8066,130.9443)">
      <path
         d="M 0,0 H 18.021"
         style="fill:none;stroke:#333333;stroke-width:2.723;stroke-linecap:round;stroke-linejoin:miter;stroke-miterlimit:10;stroke-dasharray:none;stroke-opacity:1"
         id="path30" />
    </g>
    <g
       id="g32"
       transform="translate(282.0835,159.8525)">
      <path
         d="M 0,0 16.69,-28.908 H 91.45"
         style="fill:none;stroke:#333333;stroke-width:2.723;stroke-linecap:round;stroke-linejoin:miter;stroke-miterlimit:10;stroke-dasharray:none;stroke-opacity:1"
         id="path34" />
    </g>
    <g
       id="g36"
       transform="translate(316.6968,376.1582)">
      <path
         d="m 0,0 h -17.923 l -70.787,-122.607 16.386,-28.382"
         style="fill:none;stroke:#333333;stroke-width:2.723;stroke-linecap:round;stroke-linejoin:miter;stroke-miterlimit:10;stroke-dasharray:none;stroke-opacity:1"
         id="path38" />
    </g>
    <g
       id="g40"
       transform="translate(327.8955,376.1582)">
      <path
         d="M 0,0 H -3.12"
         style="fill:none;stroke:#333333;stroke-width:2.723;stroke-linecap:round;stroke-linejoin:miter;stroke-miterlimit:10;stroke-dasharray:none;stroke-opacity:1"
         id="path42" />
    </g>
    <text
       xml:space="preserve"
       transform="matrix(1,0,0,-1,283.7603,264.9131)"
       style="font-variant:normal;font-weight:bold;font-stretch:normal;font-size:46.3876px;font-family:Quicksand;-inkscape-font-specification:Quicksand-Bold;writing-mode:lr-tb;fill:#1778ff;fill-opacity:1;fill-rule:nonzero;stroke:none"
       id="text46"><tspan
         x="0 32.28577 68.908783 105.03545 117.56937 150.20305"
         y="0"
         sodipodi:role="line"
         id="tspan44">COMING</tspan></text>
    <text
       xml:space="preserve"
       transform="matrix(1,0,0,-1,303.1392,228.1201)"
       style="font-variant:normal;font-weight:bold;font-stretch:normal;font-size:43.6939px;font-family:Quicksand;-inkscape-font-specification:Quicksand-Bold;writing-mode:lr-tb;fill:#1778ff;fill-opacity:1;fill-rule:nonzero;stroke:none"
       id="text50"><tspan
         x="0 33.521961 74.419449"
         y="0"
         sodipodi:role="line"
         id="tspan48">SOO</tspan></text>
    <g
       id="g52">
      <g
         id="g54"
         clip-path="url(#clipPath58)">
        <g
           id="g60"
           transform="translate(307.0718,232.5332)">
          <path
             d="m 0,0 v 0 c 2.49,-1.966 6.466,-4.326 11.186,-4.369 3.102,0 5.942,0.917 8.083,2.49 2.185,1.573 3.757,3.977 3.757,6.773 0,1.354 -0.393,2.665 -1.048,3.713 -1.005,1.618 -2.578,2.753 -4.37,3.627 -1.747,0.83 -3.801,1.399 -6.029,1.835 h -0.088 c -2.359,0.437 -4.325,1.137 -5.461,1.923 -0.569,0.393 -0.962,0.786 -1.18,1.136 -0.219,0.35 -0.306,0.699 -0.306,1.224 0,0.917 0.48,1.878 1.661,2.752 1.179,0.874 2.927,1.486 4.893,1.486 2.665,0 4.806,-1.311 7.035,-2.797 1.049,-0.699 2.447,-0.393 3.102,0.656 0.699,1.005 0.393,2.403 -0.611,3.102 -2.229,1.442 -5.332,3.495 -9.526,3.495 -2.84,0 -5.505,-0.83 -7.559,-2.315 -2.01,-1.486 -3.496,-3.758 -3.496,-6.379 0,-1.311 0.35,-2.535 1.005,-3.583 0.962,-1.53 2.404,-2.623 4.064,-3.409 1.66,-0.786 3.583,-1.31 5.637,-1.704 h 0.087 c 2.578,-0.48 4.719,-1.223 5.986,-2.053 0.656,-0.437 1.049,-0.874 1.311,-1.311 0.262,-0.437 0.393,-0.83 0.393,-1.398 0,-1.092 -0.568,-2.185 -1.879,-3.146 C 15.336,0.786 13.37,0.131 11.186,0.131 8.083,0.087 4.763,1.923 2.84,3.495 1.879,4.282 0.437,4.151 -0.35,3.189 -1.092,2.229 -0.961,0.786 0,0 Z"
             style="fill:none;stroke:#1778ff;stroke-width:1.9;stroke-linecap:butt;stroke-linejoin:miter;stroke-miterlimit:10;stroke-dasharray:none;stroke-opacity:1"
             id="path62" />
        </g>
        <g
           id="g64"
           transform="translate(354.8809,259.5796)">
          <path
             d="m 0,0 c -4.194,0 -8.04,-1.792 -10.705,-4.675 -2.709,-2.884 -4.326,-6.729 -4.326,-11.055 0,-4.325 1.617,-8.214 4.326,-11.055 2.665,-2.84 6.511,-4.674 10.705,-4.674 4.02,0 7.865,1.834 10.443,4.674 2.709,2.841 4.413,6.73 4.413,11.055 0,4.326 -1.704,8.171 -4.413,11.055 C 7.865,-1.792 4.02,0 0,0 Z M 6.904,-23.333 C 5.069,-25.298 2.622,-26.478 0,-26.478 c -2.796,0 -5.243,1.18 -7.078,3.145 -1.836,1.879 -2.971,4.632 -2.971,7.603 0,2.972 1.135,5.724 2.971,7.647 1.835,1.966 4.282,3.102 7.078,3.102 2.622,0 5.069,-1.136 6.904,-3.102 1.791,-1.923 2.971,-4.675 2.971,-7.647 0,-2.971 -1.18,-5.724 -2.971,-7.603 z"
             style="fill:none;stroke:#1778ff;stroke-width:1.9;stroke-linecap:butt;stroke-linejoin:miter;stroke-miterlimit:10;stroke-dasharray:none;stroke-opacity:1"
             id="path66" />
        </g>
        <g
           id="g68"
           transform="translate(395.7788,259.5796)">
          <path
             d="m 0,0 c -4.195,0 -8.04,-1.792 -10.705,-4.675 -2.709,-2.884 -4.326,-6.729 -4.326,-11.055 0,-4.325 1.617,-8.214 4.326,-11.055 2.665,-2.84 6.51,-4.674 10.705,-4.674 4.02,0 7.864,1.834 10.442,4.674 2.709,2.841 4.413,6.73 4.413,11.055 0,4.326 -1.704,8.171 -4.413,11.055 C 7.864,-1.792 4.02,0 0,0 Z M 6.903,-23.333 C 5.068,-25.298 2.621,-26.478 0,-26.478 c -2.797,0 -5.243,1.18 -7.079,3.145 -1.835,1.879 -2.971,4.632 -2.971,7.603 0,2.972 1.136,5.724 2.971,7.647 1.836,1.966 4.282,3.102 7.079,3.102 2.621,0 5.068,-1.136 6.903,-3.102 1.791,-1.923 2.971,-4.675 2.971,-7.647 0,-2.971 -1.18,-5.724 -2.971,-7.603 z"
             style="fill:none;stroke:#1778ff;stroke-width:1.9;stroke-linecap:butt;stroke-linejoin:miter;stroke-miterlimit:10;stroke-dasharray:none;stroke-opacity:1"
             id="path70" />
        </g>
      </g>
    </g>
    <text
       xml:space="preserve"
       transform="matrix(1,0,0,-1,418.6606,228.1201)"
       style="font-variant:normal;font-weight:bold;font-stretch:normal;font-size:43.6939px;font-family:Quicksand;-inkscape-font-specification:Quicksand-Bold;writing-mode:lr-tb;fill:#1778ff;fill-opacity:1;fill-rule:nonzero;stroke:none"
       id="text74"><tspan
         x="0"
         y="0"
         id="tspan72">N</tspan></text>
    <g
       id="g76">
      <g
         id="g78"
         clip-path="url(#clipPath82)">
        <g
           id="g84"
           transform="translate(428.0112,248.6562)">
          <path
             d="m 0,0 13.982,-19.4 c 0.043,-0.087 0.131,-0.175 0.218,-0.262 0.438,-0.525 1.093,-0.874 1.792,-0.874 1.311,0 2.404,1.093 2.404,2.403 V 7.253 c 0,1.268 -1.093,2.36 -2.404,2.36 -1.311,0 -2.359,-1.092 -2.359,-2.36 V -10.749 L -0.48,8.783 C -1.224,9.831 -2.709,10.05 -3.802,9.307 -4.457,8.826 -4.807,8.04 -4.763,7.297 V 7.253 -18.133 c 0,-1.31 1.049,-2.403 2.404,-2.403 1.266,0 2.359,1.093 2.359,2.403 z"
             style="fill:none;stroke:#1778ff;stroke-width:1.9;stroke-linecap:butt;stroke-linejoin:miter;stroke-miterlimit:10;stroke-dasharray:none;stroke-opacity:1"
             id="path86" />
        </g>
      </g>
    </g>
    <text
       xml:space="preserve"
       transform="matrix(1,0,0,-1,281.0234,267.6504)"
       style="font-variant:normal;font-weight:bold;font-stretch:normal;font-size:46.3876px;font-family:Quicksand;-inkscape-font-specification:Quicksand-Bold;writing-mode:lr-tb;fill:#333333;fill-opacity:1;fill-rule:nonzero;stroke:none"
       id="text90"><tspan
         x="0 32.28577 68.908783 105.03545 117.56937 150.20305"
         y="0"
         sodipodi:role="line"
         id="tspan88">COMING</tspan></text>
    <text
       xml:space="preserve"
       transform="matrix(1,0,0,-1,300.4023,230.8574)"
       style="font-variant:normal;font-weight:bold;font-stretch:normal;font-size:43.6939px;font-family:Quicksand;-inkscape-font-specification:Quicksand-Bold;writing-mode:lr-tb;fill:#1ed2ff;fill-opacity:1;fill-rule:nonzero;stroke:none"
       id="text94"><tspan
         x="0 33.521961 74.419449"
         y="0"
         sodipodi:role="line"
         id="tspan92">SOO</tspan></text>
    <g
       id="g96">
      <g
         id="g98"
         clip-path="url(#clipPath102)">
        <g
           id="g104"
           transform="translate(304.335,235.2705)">
          <path
             d="m 0,0 v 0 c 2.49,-1.966 6.466,-4.326 11.186,-4.369 3.102,0 5.942,0.917 8.083,2.49 2.185,1.573 3.757,3.977 3.757,6.773 0,1.354 -0.393,2.665 -1.048,3.713 -1.005,1.618 -2.578,2.753 -4.37,3.627 -1.747,0.83 -3.801,1.399 -6.029,1.835 h -0.088 c -2.359,0.437 -4.325,1.137 -5.461,1.923 -0.569,0.393 -0.962,0.786 -1.18,1.136 -0.219,0.35 -0.306,0.699 -0.306,1.224 0,0.917 0.48,1.878 1.661,2.752 1.179,0.874 2.927,1.486 4.893,1.486 2.665,0 4.806,-1.311 7.035,-2.797 1.049,-0.699 2.447,-0.393 3.102,0.656 0.699,1.005 0.393,2.403 -0.611,3.102 -2.229,1.442 -5.332,3.495 -9.526,3.495 -2.84,0 -5.505,-0.83 -7.559,-2.315 -2.01,-1.486 -3.496,-3.758 -3.496,-6.379 0,-1.311 0.35,-2.535 1.005,-3.583 0.962,-1.53 2.404,-2.623 4.064,-3.409 1.66,-0.786 3.583,-1.31 5.637,-1.704 h 0.087 c 2.578,-0.48 4.719,-1.223 5.986,-2.053 0.656,-0.437 1.049,-0.874 1.311,-1.311 0.262,-0.437 0.393,-0.83 0.393,-1.398 0,-1.092 -0.568,-2.185 -1.879,-3.146 C 15.336,0.786 13.37,0.131 11.186,0.131 8.083,0.087 4.763,1.923 2.84,3.495 1.879,4.282 0.437,4.151 -0.35,3.189 -1.092,2.229 -0.961,0.786 0,0 Z"
             style="fill:none;stroke:#333333;stroke-width:1.9;stroke-linecap:butt;stroke-linejoin:miter;stroke-miterlimit:10;stroke-dasharray:none;stroke-opacity:1"
             id="path106" />
        </g>
        <g
           id="g108"
           transform="translate(352.144,262.3169)">
          <path
             d="m 0,0 c -4.194,0 -8.04,-1.792 -10.705,-4.675 -2.709,-2.884 -4.326,-6.729 -4.326,-11.055 0,-4.325 1.617,-8.214 4.326,-11.055 2.665,-2.84 6.511,-4.674 10.705,-4.674 4.02,0 7.865,1.834 10.443,4.674 2.709,2.841 4.413,6.73 4.413,11.055 0,4.326 -1.704,8.171 -4.413,11.055 C 7.865,-1.792 4.02,0 0,0 Z M 6.904,-23.333 C 5.069,-25.298 2.622,-26.478 0,-26.478 c -2.796,0 -5.243,1.18 -7.078,3.145 -1.836,1.879 -2.971,4.632 -2.971,7.603 0,2.972 1.135,5.724 2.971,7.647 1.835,1.966 4.282,3.102 7.078,3.102 2.622,0 5.069,-1.136 6.904,-3.102 1.791,-1.923 2.971,-4.675 2.971,-7.647 0,-2.971 -1.18,-5.724 -2.971,-7.603 z"
             style="fill:none;stroke:#333333;stroke-width:1.9;stroke-linecap:butt;stroke-linejoin:miter;stroke-miterlimit:10;stroke-dasharray:none;stroke-opacity:1"
             id="path110" />
        </g>
        <g
           id="g112"
           transform="translate(393.042,262.3169)">
          <path
             d="m 0,0 c -4.195,0 -8.04,-1.792 -10.705,-4.675 -2.709,-2.884 -4.326,-6.729 -4.326,-11.055 0,-4.325 1.617,-8.214 4.326,-11.055 2.665,-2.84 6.51,-4.674 10.705,-4.674 4.02,0 7.864,1.834 10.442,4.674 2.709,2.841 4.413,6.73 4.413,11.055 0,4.326 -1.704,8.171 -4.413,11.055 C 7.864,-1.792 4.02,0 0,0 Z M 6.903,-23.333 C 5.068,-25.298 2.621,-26.478 0,-26.478 c -2.797,0 -5.243,1.18 -7.079,3.145 -1.835,1.879 -2.971,4.632 -2.971,7.603 0,2.972 1.136,5.724 2.971,7.647 1.836,1.966 4.282,3.102 7.079,3.102 2.621,0 5.068,-1.136 6.903,-3.102 1.791,-1.923 2.971,-4.675 2.971,-7.647 0,-2.971 -1.18,-5.724 -2.971,-7.603 z"
             style="fill:none;stroke:#333333;stroke-width:1.9;stroke-linecap:butt;stroke-linejoin:miter;stroke-miterlimit:10;stroke-dasharray:none;stroke-opacity:1"
             id="path114" />
        </g>
      </g>
    </g>
    <text
       xml:space="preserve"
       transform="matrix(1,0,0,-1,415.9238,230.8574)"
       style="font-variant:normal;font-weight:bold;font-stretch:normal;font-size:43.6939px;font-family:Quicksand;-inkscape-font-specification:Quicksand-Bold;writing-mode:lr-tb;fill:#1ed2ff;fill-opacity:1;fill-rule:nonzero;stroke:none"
       id="text118"><tspan
         x="0"
         y="0"
         id="tspan116">N</tspan></text>
    <g
       id="g120">
      <g
         id="g122"
         clip-path="url(#clipPath126)">
        <g
           id="g128"
           transform="translate(425.2744,251.3936)">
          <path
             d="m 0,0 13.982,-19.4 c 0.043,-0.087 0.131,-0.175 0.218,-0.262 0.438,-0.525 1.093,-0.874 1.792,-0.874 1.311,0 2.404,1.093 2.404,2.403 V 7.253 c 0,1.268 -1.093,2.36 -2.404,2.36 -1.311,0 -2.359,-1.092 -2.359,-2.36 V -10.749 L -0.48,8.783 C -1.224,9.831 -2.709,10.05 -3.802,9.307 -4.457,8.826 -4.807,8.04 -4.763,7.297 V 7.253 -18.133 c 0,-1.31 1.049,-2.403 2.404,-2.403 1.266,0 2.359,1.093 2.359,2.403 z"
             style="fill:none;stroke:#333333;stroke-width:1.9;stroke-linecap:butt;stroke-linejoin:miter;stroke-miterlimit:10;stroke-dasharray:none;stroke-opacity:1"
             id="path130" />
        </g>
      </g>
    </g>
    <text
       xml:space="preserve"
       transform="matrix(1,0,0,-1,303.4648,192.1182)"
       style="font-variant:normal;font-weight:bold;font-stretch:normal;font-size:16.704px;font-family:Quicksand;-inkscape-font-specification:Quicksand-Bold;writing-mode:lr-tb;fill:#333333;fill-opacity:1;fill-rule:nonzero;stroke:none"
       id="text134"><tspan
         x="0 14.681146 27.47641 40.829586 54.259602 62.611603 76.72982 93.647636 109.90397 123.44089 138.87706"
         y="0"
         sodipodi:role="line"
         id="tspan132">STAY TUNED!</tspan></text>
    <g
       id="g136"
       transform="translate(304.689,208.8447)">
      <path
         d="M 0,0 H 140.391"
         style="fill:none;stroke:#333333;stroke-width:1.546;stroke-linecap:round;stroke-linejoin:miter;stroke-miterlimit:10;stroke-dasharray:none;stroke-opacity:1"
         id="path138" />
    </g>
    <g
       id="g140"
       transform="translate(304.689,187.498)">
      <path
         d="M 0,0 H 140.391"
         style="fill:none;stroke:#333333;stroke-width:1.546;stroke-linecap:round;stroke-linejoin:miter;stroke-miterlimit:10;stroke-dasharray:none;stroke-opacity:1"
         id="path142" />
    </g>
    <g
       id="g144"
       transform="translate(503.1494,197.2812)">
      <path
         d="M 0,0 V -10.455"
         style="fill:none;stroke:#333333;stroke-width:2.723;stroke-linecap:round;stroke-linejoin:miter;stroke-miterlimit:10;stroke-dasharray:none;stroke-opacity:1"
         id="path146" />
    </g>
    <g
       id="g148"
       transform="translate(508.377,192.0537)">
      <path
         d="M 0,0 H -10.455"
         style="fill:none;stroke:#333333;stroke-width:2.723;stroke-linecap:round;stroke-linejoin:miter;stroke-miterlimit:10;stroke-dasharray:none;stroke-opacity:1"
         id="path150" />
    </g>
    <g
       id="g152"
       transform="translate(530.0957,255.2393)">
      <path
         d="M 0,0 V -10.455"
         style="fill:none;stroke:#333333;stroke-width:2.723;stroke-linecap:round;stroke-linejoin:miter;stroke-miterlimit:10;stroke-dasharray:none;stroke-opacity:1"
         id="path154" />
    </g>
    <g
       id="g156"
       transform="translate(535.3232,250.0117)">
      <path
         d="M 0,0 H -10.455"
         style="fill:none;stroke:#333333;stroke-width:2.723;stroke-linecap:round;stroke-linejoin:miter;stroke-miterlimit:10;stroke-dasharray:none;stroke-opacity:1"
         id="path158" />
    </g>
    <g
       id="g160"
       transform="translate(478.9775,158.9687)">
      <path
         d="M 0,0 V -10.455"
         style="fill:none;stroke:#333333;stroke-width:2.723;stroke-linecap:round;stroke-linejoin:miter;stroke-miterlimit:10;stroke-dasharray:none;stroke-opacity:1"
         id="path162" />
    </g>
    <g
       id="g164"
       transform="translate(484.2051,153.7412)">
      <path
         d="M 0,0 H -10.455"
         style="fill:none;stroke:#333333;stroke-width:2.723;stroke-linecap:round;stroke-linejoin:miter;stroke-miterlimit:10;stroke-dasharray:none;stroke-opacity:1"
         id="path166" />
    </g>
    <g
       id="g168"
       transform="translate(282.7593,128.5576)">
      <path
         d="M 0,0 -2.47,-2.47"
         style="fill:none;stroke:#333333;stroke-width:2.723;stroke-linecap:round;stroke-linejoin:miter;stroke-miterlimit:10;stroke-dasharray:none;stroke-opacity:1"
         id="path170" />
    </g>
    <g
       id="g172"
       transform="translate(274.1816,126.1035)">
      <path
         d="M 0,0 -2.469,2.469"
         style="fill:none;stroke:#333333;stroke-width:2.723;stroke-linecap:round;stroke-linejoin:miter;stroke-miterlimit:10;stroke-dasharray:none;stroke-opacity:1"
         id="path174" />
    </g>
    <g
       id="g176"
       transform="translate(271.7124,117.5254)">
      <path
         d="M 0,0 2.469,2.47"
         style="fill:none;stroke:#333333;stroke-width:2.723;stroke-linecap:round;stroke-linejoin:miter;stroke-miterlimit:10;stroke-dasharray:none;stroke-opacity:1"
         id="path178" />
    </g>
    <g
       id="g180"
       transform="translate(280.2896,119.9795)">
      <path
         d="M 0,0 2.47,-2.47"
         style="fill:none;stroke:#333333;stroke-width:2.723;stroke-linecap:round;stroke-linejoin:miter;stroke-miterlimit:10;stroke-dasharray:none;stroke-opacity:1"
         id="path182" />
    </g>
    <g
       id="g184"
       transform="translate(473.7305,372.6035)">
      <path
         d="M 0,0 -2.47,-2.47"
         style="fill:none;stroke:#333333;stroke-width:2.723;stroke-linecap:round;stroke-linejoin:miter;stroke-miterlimit:10;stroke-dasharray:none;stroke-opacity:1"
         id="path186" />
    </g>
    <g
       id="g188"
       transform="translate(465.1523,370.1494)">
      <path
         d="M 0,0 -2.469,2.469"
         style="fill:none;stroke:#333333;stroke-width:2.723;stroke-linecap:round;stroke-linejoin:miter;stroke-miterlimit:10;stroke-dasharray:none;stroke-opacity:1"
         id="path190" />
    </g>
    <g
       id="g192"
       transform="translate(462.6836,361.5718)">
      <path
         d="M 0,0 2.469,2.47"
         style="fill:none;stroke:#333333;stroke-width:2.723;stroke-linecap:round;stroke-linejoin:miter;stroke-miterlimit:10;stroke-dasharray:none;stroke-opacity:1"
         id="path194" />
    </g>
    <g
       id="g196"
       transform="translate(471.2607,364.0259)">
      <path
         d="M 0,0 2.47,-2.47"
         style="fill:none;stroke:#333333;stroke-width:2.723;stroke-linecap:round;stroke-linejoin:miter;stroke-miterlimit:10;stroke-dasharray:none;stroke-opacity:1"
         id="path198" />
    </g>
    <g
       id="g200"
       transform="translate(505.7627,166.0605)">
      <path
         d="M 0,0 H -5.228"
         style="fill:none;stroke:#333333;stroke-width:2.723;stroke-linecap:round;stroke-linejoin:miter;stroke-miterlimit:10;stroke-dasharray:none;stroke-opacity:1"
         id="path202" />
    </g>
    <g
       id="g204"
       transform="translate(532.71,220.0664)">
      <path
         d="M 0,0 H -5.228"
         style="fill:none;stroke:#333333;stroke-width:2.723;stroke-linecap:round;stroke-linejoin:miter;stroke-miterlimit:10;stroke-dasharray:none;stroke-opacity:1"
         id="path206" />
    </g>
    <g
       id="g208"
       transform="translate(477.3457,127.4043)">
      <path
         d="M 0,0 H -1.334"
         style="fill:none;stroke:#333333;stroke-width:2.723;stroke-linecap:round;stroke-linejoin:miter;stroke-miterlimit:10;stroke-dasharray:none;stroke-opacity:1"
         id="path210" />
    </g>
    <g
       id="g212"
       transform="translate(457.1865,117.0859)">
      <path
         d="M 0,0 H -1.334"
         style="fill:none;stroke:#333333;stroke-width:2.723;stroke-linecap:round;stroke-linejoin:miter;stroke-miterlimit:10;stroke-dasharray:none;stroke-opacity:1"
         id="path214" />
    </g>
    <g
       id="g216"
       transform="translate(305.3564,110.417)">
      <path
         d="M 0,0 H -1.335"
         style="fill:none;stroke:#333333;stroke-width:2.723;stroke-linecap:round;stroke-linejoin:miter;stroke-miterlimit:10;stroke-dasharray:none;stroke-opacity:1"
         id="path218" />
    </g>
    <g
       id="g220"
       transform="translate(245.04,114.2188)">
      <path
         d="M 0,0 H -1.335"
         style="fill:none;stroke:#333333;stroke-width:2.723;stroke-linecap:round;stroke-linejoin:miter;stroke-miterlimit:10;stroke-dasharray:none;stroke-opacity:1"
         id="path222" />
    </g>
    <g
       id="g224"
       transform="translate(498.5889,372.6187)">
      <path
         d="M 0,0 H -1.335"
         style="fill:none;stroke:#333333;stroke-width:2.723;stroke-linecap:round;stroke-linejoin:miter;stroke-miterlimit:10;stroke-dasharray:none;stroke-opacity:1"
         id="path226" />
    </g>
    <g
       id="g228"
       transform="translate(509.0439,386.6748)">
      <path
         d="M 0,0 H -1.335"
         style="fill:none;stroke:#333333;stroke-width:2.723;stroke-linecap:round;stroke-linejoin:miter;stroke-miterlimit:10;stroke-dasharray:none;stroke-opacity:1"
         id="path230" />
    </g>
    <g
       id="g232"
       transform="translate(525.5361,273.7959)">
      <path
         d="M 0,0 H -1.335"
         style="fill:none;stroke:#333333;stroke-width:2.723;stroke-linecap:round;stroke-linejoin:miter;stroke-miterlimit:10;stroke-dasharray:none;stroke-opacity:1"
         id="path234" />
    </g>
    <g
       id="g236"
       transform="translate(517.248,208.4258)">
      <path
         d="M 0,0 H -1.335"
         style="fill:none;stroke:#333333;stroke-width:2.723;stroke-linecap:round;stroke-linejoin:miter;stroke-miterlimit:10;stroke-dasharray:none;stroke-opacity:1"
         id="path238" />
    </g>
    <g
       id="g240"
       transform="translate(237.7227,334.4458)">
      <path
         d="M 0,0 V -10.455"
         style="fill:none;stroke:#333333;stroke-width:2.723;stroke-linecap:round;stroke-linejoin:miter;stroke-miterlimit:10;stroke-dasharray:none;stroke-opacity:1"
         id="path242" />
    </g>
    <g
       id="g244"
       transform="translate(242.9502,329.2183)">
      <path
         d="M 0,0 H -10.455"
         style="fill:none;stroke:#333333;stroke-width:2.723;stroke-linecap:round;stroke-linejoin:miter;stroke-miterlimit:10;stroke-dasharray:none;stroke-opacity:1"
         id="path246" />
    </g>
    <g
       id="g248"
       transform="translate(213.5518,296.1333)">
      <path
         d="M 0,0 V -10.455"
         style="fill:none;stroke:#333333;stroke-width:2.723;stroke-linecap:round;stroke-linejoin:miter;stroke-miterlimit:10;stroke-dasharray:none;stroke-opacity:1"
         id="path250" />
    </g>
    <g
       id="g252"
       transform="translate(218.7793,290.9058)">
      <path
         d="M 0,0 H -10.455"
         style="fill:none;stroke:#333333;stroke-width:2.723;stroke-linecap:round;stroke-linejoin:miter;stroke-miterlimit:10;stroke-dasharray:none;stroke-opacity:1"
         id="path254" />
    </g>
    <g
       id="g256"
       transform="translate(240.3364,303.2251)">
      <path
         d="M 0,0 H -5.228"
         style="fill:none;stroke:#333333;stroke-width:2.723;stroke-linecap:round;stroke-linejoin:miter;stroke-miterlimit:10;stroke-dasharray:none;stroke-opacity:1"
         id="path258" />
    </g>
    <g
       id="g260"
       transform="translate(267.2832,357.2314)">
      <path
         d="M 0,0 H -5.228"
         style="fill:none;stroke:#333333;stroke-width:2.723;stroke-linecap:round;stroke-linejoin:miter;stroke-miterlimit:10;stroke-dasharray:none;stroke-opacity:1"
         id="path262" />
    </g>
    <g
       id="g264"
       transform="translate(211.9194,264.5693)">
      <path
         d="M 0,0 H -1.334"
         style="fill:none;stroke:#333333;stroke-width:2.723;stroke-linecap:round;stroke-linejoin:miter;stroke-miterlimit:10;stroke-dasharray:none;stroke-opacity:1"
         id="path266" />
    </g>
    <g
       id="g268"
       transform="translate(282.7505,376.1582)">
      <path
         d="M 0,0 H -1.334"
         style="fill:none;stroke:#333333;stroke-width:2.723;stroke-linecap:round;stroke-linejoin:miter;stroke-miterlimit:10;stroke-dasharray:none;stroke-opacity:1"
         id="path270" />
    </g>
    <g
       id="g272"
       transform="translate(535.873,185.4092)">
      <path
         d="m 0,0 h -8.266 l -4.132,-7.158 4.132,-7.158 H 0 l 4.133,7.158 z"
         style="fill:#1778ff;fill-opacity:1;fill-rule:nonzero;stroke:none"
         id="path274" />
    </g>
    <g
       id="g276"
       transform="translate(215.9087,358.8877)">
      <path
         d="m 0,0 h -8.266 l -4.132,-7.158 4.132,-7.158 H 0 l 4.133,7.158 z"
         style="fill:#1778ff;fill-opacity:1;fill-rule:nonzero;stroke:none"
         id="path278" />
    </g>
    <g
       id="g280"
       transform="translate(631.4355,116.3037)">
      <path
         d="m 0,0 h -4.133 l -2.066,-3.579 2.066,-3.58 H 0 l 2.066,3.58 z"
         style="fill:#1ed2ff;fill-opacity:1;fill-rule:nonzero;stroke:none"
         id="path282" />
    </g>
    <g
       id="g284"
       transform="translate(169.0249,387.9619)">
      <path
         d="m 0,0 h -4.133 l -2.066,-3.579 2.066,-3.579 H 0 l 2.066,3.579 z"
         style="fill:#1ed2ff;fill-opacity:1;fill-rule:nonzero;stroke:none"
         id="path286" />
    </g>
    <g
       id="g288"
       transform="translate(568.3174,167.8467)">
      <path
         d="m 0,0 h -24.383 l -12.191,-21.115 12.191,-21.116 H 0 l 12.19,21.116 z"
         style="fill:#1ed2ff;fill-opacity:1;fill-rule:nonzero;stroke:none"
         id="path290" />
    </g>
    <g
       id="g292"
       transform="translate(187.9443,332.3237)">
      <path
         d="m 0,0 h -24.382 l -12.192,-21.116 12.192,-21.116 H 0 l 12.191,21.116 z"
         style="fill:#1ed2ff;fill-opacity:1;fill-rule:nonzero;stroke:none"
         id="path294" />
    </g>
    <g
       id="g296"
       transform="translate(589.4648,178.333)">
      <path
         d="M 0,0 -2.47,-2.469"
         style="fill:none;stroke:#333333;stroke-width:2.723;stroke-linecap:round;stroke-linejoin:miter;stroke-miterlimit:10;stroke-dasharray:none;stroke-opacity:1"
         id="path298" />
    </g>
    <g
       id="g300"
       transform="translate(580.8867,175.8789)">
      <path
         d="M 0,0 -2.47,2.47"
         style="fill:none;stroke:#333333;stroke-width:2.723;stroke-linecap:round;stroke-linejoin:miter;stroke-miterlimit:10;stroke-dasharray:none;stroke-opacity:1"
         id="path302" />
    </g>
    <g
       id="g304"
       transform="translate(578.417,167.3018)">
      <path
         d="M 0,0 2.47,2.47"
         style="fill:none;stroke:#333333;stroke-width:2.723;stroke-linecap:round;stroke-linejoin:miter;stroke-miterlimit:10;stroke-dasharray:none;stroke-opacity:1"
         id="path306" />
    </g>
    <g
       id="g308"
       transform="translate(586.9951,169.7559)">
      <path
         d="M 0,0 2.47,-2.47"
         style="fill:none;stroke:#333333;stroke-width:2.723;stroke-linecap:round;stroke-linejoin:miter;stroke-miterlimit:10;stroke-dasharray:none;stroke-opacity:1"
         id="path310" />
    </g>
    <g
       id="g312"
       transform="translate(147.9912,357.2607)">
      <path
         d="M 0,0 -2.469,-2.47"
         style="fill:none;stroke:#333333;stroke-width:2.723;stroke-linecap:round;stroke-linejoin:miter;stroke-miterlimit:10;stroke-dasharray:none;stroke-opacity:1"
         id="path314" />
    </g>
    <g
       id="g316"
       transform="translate(139.4141,354.8066)">
      <path
         d="M 0,0 -2.47,2.47"
         style="fill:none;stroke:#333333;stroke-width:2.723;stroke-linecap:round;stroke-linejoin:miter;stroke-miterlimit:10;stroke-dasharray:none;stroke-opacity:1"
         id="path318" />
    </g>
    <g
       id="g320"
       transform="translate(136.9443,346.229)">
      <path
         d="M 0,0 2.47,2.47"
         style="fill:none;stroke:#333333;stroke-width:2.723;stroke-linecap:round;stroke-linejoin:miter;stroke-miterlimit:10;stroke-dasharray:none;stroke-opacity:1"
         id="path322" />
    </g>
    <g
       id="g324"
       transform="translate(145.522,348.6831)">
      <path
         d="M 0,0 2.469,-2.47"
         style="fill:none;stroke:#333333;stroke-width:2.723;stroke-linecap:round;stroke-linejoin:miter;stroke-miterlimit:10;stroke-dasharray:none;stroke-opacity:1"
         id="path326" />
    </g>
    <g
       id="g328"
       transform="translate(130.7778,400.1934)">
      <path
         d="M 0,0 H -1.334"
         style="fill:none;stroke:#333333;stroke-width:2.723;stroke-linecap:round;stroke-linejoin:miter;stroke-miterlimit:10;stroke-dasharray:none;stroke-opacity:1"
         id="path330" />
    </g>
    <g
       id="g332"
       transform="translate(607.9453,137.4521)">
      <path
         d="M 0,0 H -1.335"
         style="fill:none;stroke:#333333;stroke-width:2.723;stroke-linecap:round;stroke-linejoin:miter;stroke-miterlimit:10;stroke-dasharray:none;stroke-opacity:1"
         id="path334" />
    </g>
    <g
       id="g336"
       transform="translate(634.1689,89.375)">
      <path
         d="M 0,0 H -1.334"
         style="fill:none;stroke:#333333;stroke-width:2.723;stroke-linecap:round;stroke-linejoin:miter;stroke-miterlimit:10;stroke-dasharray:none;stroke-opacity:1"
         id="path338" />
    </g>
    <g
       id="g340"
       transform="translate(251.8213,345.5898)">
      <path
         d="M 0,0 H -1.334"
         style="fill:none;stroke:#333333;stroke-width:2.723;stroke-linecap:round;stroke-linejoin:miter;stroke-miterlimit:10;stroke-dasharray:none;stroke-opacity:1"
         id="path342" />
    </g>
    <g
       id="g344"
       transform="translate(244.3726,225.1689)">
      <path
         d="M 0,0 -69.565,-35.856"
         style="fill:none;stroke:#333333;stroke-width:2.723;stroke-linecap:round;stroke-linejoin:miter;stroke-miterlimit:10;stroke-dasharray:none;stroke-opacity:1"
         id="path346" />
    </g>
    <g
       id="g348"
       transform="translate(616.7324,417.3018)">
      <path
         d="M 0,0 -23.337,-12.094"
         style="fill:none;stroke:#333333;stroke-width:2.723;stroke-linecap:round;stroke-linejoin:miter;stroke-miterlimit:10;stroke-dasharray:none;stroke-opacity:1"
         id="path350" />
    </g>
    <g
       id="g352"
       transform="translate(574.5537,395.4443)">
      <path
         d="M 0,0 -66.719,-34.574"
         style="fill:none;stroke:#333333;stroke-width:2.723;stroke-linecap:round;stroke-linejoin:miter;stroke-miterlimit:10;stroke-dasharray:none;stroke-opacity:1"
         id="path354" />
    </g>
    <g
       id="g356"
       transform="translate(495.5459,354.5024)">
      <path
         d="M 0,0 -32.862,-17.03"
         style="fill:none;stroke:#333333;stroke-width:2.723;stroke-linecap:round;stroke-linejoin:miter;stroke-miterlimit:10;stroke-dasharray:none;stroke-opacity:1"
         id="path358" />
    </g>
    <g
       id="g360"
       transform="translate(127.874,145.3984)">
      <path
         d="M 0,0 -18.792,-9.686"
         style="fill:none;stroke:#333333;stroke-width:2.723;stroke-linecap:round;stroke-linejoin:miter;stroke-miterlimit:10;stroke-dasharray:none;stroke-opacity:1"
         id="path362" />
    </g>
    <g
       id="g364"
       transform="translate(253.1504,209.9658)">
      <path
         d="M 0,0 -101.229,-52.173"
         style="fill:none;stroke:#333333;stroke-width:2.723;stroke-linecap:round;stroke-linejoin:miter;stroke-miterlimit:10;stroke-dasharray:none;stroke-opacity:1"
         id="path366" />
    </g>
    <g
       id="g368"
       transform="translate(673.4014,426.9434)">
      <path
         d="M 0,0 -201.94,-104.674"
         style="fill:none;stroke:#333333;stroke-width:2.723;stroke-linecap:round;stroke-linejoin:miter;stroke-miterlimit:10;stroke-dasharray:none;stroke-opacity:1"
         id="path370" />
    </g>
    <g
       id="g372"
       transform="translate(272.1001,177.1436)">
      <path
         d="M 0,0 -193.212,-99.566"
         style="fill:none;stroke:#333333;stroke-width:2.723;stroke-linecap:round;stroke-linejoin:miter;stroke-miterlimit:10;stroke-dasharray:none;stroke-opacity:1"
         id="path374" />
    </g>
    <g
       id="g376"
       transform="translate(605.7646,349.2778)">
      <path
         d="M 0,0 -21.687,-11.249"
         style="fill:none;stroke:#333333;stroke-width:2.723;stroke-linecap:round;stroke-linejoin:miter;stroke-miterlimit:10;stroke-dasharray:none;stroke-opacity:1"
         id="path378" />
    </g>
    <g
       id="g380"
       transform="translate(573.1328,332.353)">
      <path
         d="M 0,0 -82.723,-42.906"
         style="fill:none;stroke:#333333;stroke-width:2.723;stroke-linecap:round;stroke-linejoin:miter;stroke-miterlimit:10;stroke-dasharray:none;stroke-opacity:1"
         id="path382" />
    </g>
    <g
       id="g384"
       transform="translate(259.5225,198.9287)">
      <path
         d="M 0,0 -46.955,-24.199"
         style="fill:none;stroke:#333333;stroke-width:2.723;stroke-linecap:round;stroke-linejoin:miter;stroke-miterlimit:10;stroke-dasharray:none;stroke-opacity:1"
         id="path386" />
    </g>
    <g
       id="g388"
       transform="translate(627.832,388.9985)">
      <path
         d="M 0,0 -58.518,-30.338"
         style="fill:none;stroke:#333333;stroke-width:2.723;stroke-linecap:round;stroke-linejoin:miter;stroke-miterlimit:10;stroke-dasharray:none;stroke-opacity:1"
         id="path390" />
    </g>
    <g
       id="g392"
       transform="translate(670.624,102.5664)">
      <path
         d="M 0,0 -23.338,-12.094"
         style="fill:none;stroke:#333333;stroke-width:2.723;stroke-linecap:round;stroke-linejoin:miter;stroke-miterlimit:10;stroke-dasharray:none;stroke-opacity:1"
         id="path394" />
    </g>
    <g
       id="g396"
       transform="translate(74.29,435.3008)">
      <path
         d="M 0,0 -23.337,-12.094"
         style="fill:none;stroke:#333333;stroke-width:2.723;stroke-linecap:round;stroke-linejoin:miter;stroke-miterlimit:10;stroke-dasharray:none;stroke-opacity:1"
         id="path398" />
    </g>
    <g
       id="g400"
       transform="translate(699.0469,97.5674)">
      <path
         d="M 0,0 -103.487,-53.642"
         style="fill:none;stroke:#333333;stroke-width:2.723;stroke-linecap:round;stroke-linejoin:miter;stroke-miterlimit:10;stroke-dasharray:none;stroke-opacity:1"
         id="path402" />
    </g>
    <g
       id="g404"
       transform="translate(653.8545,59.8154)">
      <path
         d="M 0,0 -30.648,-15.89"
         style="fill:none;stroke:#333333;stroke-width:2.723;stroke-linecap:round;stroke-linejoin:miter;stroke-miterlimit:10;stroke-dasharray:none;stroke-opacity:1"
         id="path406" />
    </g>
    <g
       id="g408"
       transform="translate(154.4404,456.0747)">
      <path
         d="M 0,0 -103.487,-53.642"
         style="fill:none;stroke:#333333;stroke-width:2.723;stroke-linecap:round;stroke-linejoin:miter;stroke-miterlimit:10;stroke-dasharray:none;stroke-opacity:1"
         id="path410" />
    </g>
    <g
       id="g412"
       transform="translate(109.248,418.3228)">
      <path
         d="M 0,0 -30.649,-15.89"
         style="fill:none;stroke:#333333;stroke-width:2.723;stroke-linecap:round;stroke-linejoin:miter;stroke-miterlimit:10;stroke-dasharray:none;stroke-opacity:1"
         id="path414" />
    </g>
    <g
       id="g416"
       transform="translate(139.5649,86.4141)">
      <path
         d="M 0,0 -6.524,-3.361"
         style="fill:none;stroke:#333333;stroke-width:2.723;stroke-linecap:round;stroke-linejoin:miter;stroke-miterlimit:10;stroke-dasharray:none;stroke-opacity:1"
         id="path418" />
    </g>
    <g
       id="g420"
       transform="translate(176.4131,105.4014)">
      <path
         d="M 0,0 -20.318,-10.47"
         style="fill:none;stroke:#333333;stroke-width:2.723;stroke-linecap:round;stroke-linejoin:miter;stroke-miterlimit:10;stroke-dasharray:none;stroke-opacity:1"
         id="path422" />
    </g>
    <g
       id="g424"
       transform="translate(282.0835,159.8525)">
      <path
         d="M 0,0 -88.559,-45.634"
         style="fill:none;stroke:#333333;stroke-width:2.723;stroke-linecap:round;stroke-linejoin:miter;stroke-miterlimit:10;stroke-dasharray:none;stroke-opacity:1"
         id="path426" />
    </g>
    <g
       id="g428"
       transform="translate(578.4756,312.6699)">
      <path
         d="M 0,0 -12.896,-6.691"
         style="fill:none;stroke:#333333;stroke-width:2.723;stroke-linecap:round;stroke-linejoin:miter;stroke-miterlimit:10;stroke-dasharray:none;stroke-opacity:1"
         id="path430" />
    </g>
    <g
       id="g432"
       transform="translate(606.7266,327.3286)">
      <path
         d="M 0,0 -4.565,-2.369"
         style="fill:none;stroke:#333333;stroke-width:2.723;stroke-linecap:round;stroke-linejoin:miter;stroke-miterlimit:10;stroke-dasharray:none;stroke-opacity:1"
         id="path434" />
    </g>
    <g
       id="g436"
       transform="translate(550,297.8945)">
      <path
         d="M 0,0 -49.606,-25.739"
         style="fill:none;stroke:#333333;stroke-width:2.723;stroke-linecap:round;stroke-linejoin:miter;stroke-miterlimit:10;stroke-dasharray:none;stroke-opacity:1"
         id="path438" />
    </g>
    <g
       id="g440"
       transform="translate(277.2358,168.249)">
      <path
         d="M 0,0 -56.005,-28.86"
         style="fill:none;stroke:#333333;stroke-width:2.723;stroke-linecap:round;stroke-linejoin:miter;stroke-miterlimit:10;stroke-dasharray:none;stroke-opacity:1"
         id="path442" />
    </g>
    <g
       id="g444"
       transform="translate(562.4062,315.2373)">
      <path
         d="M 0,0 -66.86,-34.685"
         style="fill:none;stroke:#333333;stroke-width:2.723;stroke-linecap:round;stroke-linejoin:miter;stroke-miterlimit:10;stroke-dasharray:none;stroke-opacity:1"
         id="path446" />
    </g>
    <g
       id="g448"
       transform="translate(371.2852,395.9102)">
      <path
         d="M 0,0 7.231,12.524 H -7.231 Z"
         style="fill:none;stroke:#333333;stroke-width:2.723;stroke-linecap:round;stroke-linejoin:miter;stroke-miterlimit:10;stroke-dasharray:none;stroke-opacity:1"
         id="path450" />
    </g>
    <g
       id="g452"
       transform="translate(364.1416,115.5547)">
      <path
         d="m 0,0 -3.743,-13.97 13.97,3.743 z"
         style="fill:none;stroke:#333333;stroke-width:2.723;stroke-linecap:round;stroke-linejoin:miter;stroke-miterlimit:10;stroke-dasharray:none;stroke-opacity:1"
         id="path454" />
    </g>
    <g
       id="g456"
       transform="translate(390.6025,399.3101)">
      <path
         d="M 0,0 11.989,20.766 -2.133,23.884 Z"
         style="fill:#333333;fill-opacity:1;fill-rule:nonzero;stroke:none"
         id="path458" />
    </g>
    <g
       id="g460"
       transform="translate(349.1919,111.8682)">
      <path
         d="M 0,0 -7.231,-22.862 H 7.231 Z"
         style="fill:#333333;fill-opacity:1;fill-rule:nonzero;stroke:none"
         id="path462" />
    </g>
    <g
       id="g464"
       transform="translate(337.0259,112.6377)">
      <path
         d="m 0,0 -11.801,-11.801 8.932,-4.639 z"
         style="fill:none;stroke:#333333;stroke-width:2.723;stroke-linecap:round;stroke-linejoin:miter;stroke-miterlimit:10;stroke-dasharray:none;stroke-opacity:1"
         id="path466" />
    </g>
    <g
       id="g468"
       transform="translate(566.3398,258.085)">
      <path
         d="m 0,0 11.818,-4.118 3.502,12.014 11.817,-4.119 3.502,12.015 11.816,-4.12 3.503,12.015 11.821,-4.117 3.504,12.016 11.824,-4.116 3.509,12.018"
         style="fill:none;stroke:#333333;stroke-width:2.723;stroke-linecap:round;stroke-linejoin:miter;stroke-miterlimit:10;stroke-dasharray:none;stroke-opacity:1"
         id="path470" />
    </g>
    <g
       id="g472"
       transform="translate(157.2139,210.2773)">
      <path
         d="M 0,0 11.817,-4.119 15.32,7.896 27.141,3.779 30.645,15.795 42.469,11.68 45.978,23.697"
         style="fill:none;stroke:#333333;stroke-width:2.723;stroke-linecap:round;stroke-linejoin:miter;stroke-miterlimit:10;stroke-dasharray:none;stroke-opacity:1"
         id="path474" />
    </g>
    <g
       id="g476"
       transform="translate(409.1953,370.2041)">
      <path
         d="M 0,0 H -28.372"
         style="fill:none;stroke:#333333;stroke-width:1.825;stroke-linecap:round;stroke-linejoin:miter;stroke-miterlimit:10;stroke-dasharray:none;stroke-opacity:1"
         id="path478" />
    </g>
    <g
       id="g480"
       transform="translate(391.5381,382.8071)">
      <path
         d="M 0,0 H -49.301"
         style="fill:none;stroke:#333333;stroke-width:1.825;stroke-linecap:round;stroke-linejoin:miter;stroke-miterlimit:10;stroke-dasharray:none;stroke-opacity:1"
         id="path482" />
    </g>
    <g
       id="g484"
       transform="translate(273.6104,194.7969)">
      <path
         d="M 0,0 -32.771,56.76"
         style="fill:none;stroke:#333333;stroke-width:1.825;stroke-linecap:round;stroke-linejoin:miter;stroke-miterlimit:10;stroke-dasharray:none;stroke-opacity:1"
         id="path486" />
    </g>
    <g
       id="g488"
       transform="translate(445.6689,153.7412)">
      <path
         d="M 0,0 25.25,43.735"
         style="fill:none;stroke:#333333;stroke-width:1.825;stroke-linecap:round;stroke-linejoin:miter;stroke-miterlimit:10;stroke-dasharray:none;stroke-opacity:1"
         id="path490" />
    </g>
    <g
       id="g492"
       transform="translate(485.2969,188.0986)">
      <path
         d="M 0,0 25.25,43.734"
         style="fill:none;stroke:#333333;stroke-width:1.825;stroke-linecap:round;stroke-linejoin:miter;stroke-miterlimit:10;stroke-dasharray:none;stroke-opacity:1"
         id="path494" />
    </g>
    <g
       id="g496"
       transform="translate(438.1484,140.7168)">
      <path
         d="M 0,0 4.502,7.797"
         style="fill:none;stroke:#333333;stroke-width:1.825;stroke-linecap:round;stroke-linejoin:miter;stroke-miterlimit:10;stroke-dasharray:none;stroke-opacity:1"
         id="path498" />
    </g>
  </g>
</svg>
